<svg width="101" height="115" viewBox="0 0 101 115" fill="none" xmlns="http://www.w3.org/2000/svg">
<g filter="url(#filter0_f_38_1816)">
<path d="M66.1499 95.2C66.1499 97.5196 59.0984 99.4 50.3999 99.4C41.7014 99.4 34.6499 97.5196 34.6499 95.2C34.6499 92.8804 41.7014 91 50.3999 91C59.0984 91 66.1499 92.8804 66.1499 95.2Z" fill="black" fill-opacity="0.3"/>
</g>
<g filter="url(#filter1_d_38_1816)">
<path fill-rule="evenodd" clip-rule="evenodd" d="M11.2002 44.8001C11.2002 23.1505 28.7506 5.6001 50.4002 5.6001C72.0498 5.6001 89.6002 23.1505 89.6002 44.8001C89.6002 62.7622 76.4879 74.9113 62.3449 82.1053C58.048 84.291 55.9077 88.3946 55.1791 93.5727C54.8676 95.7872 52.9912 97.6501 50.5455 97.6501H50.2548C47.8092 97.6501 45.9328 95.7872 45.6213 93.5728C44.8927 88.3946 42.7523 84.291 38.4555 82.1053C23.7231 74.6116 11.2002 62.7473 11.2002 44.8001Z" fill="white"/>
</g>
<path d="M50.4 8.3999C30.2968 8.3999 14 24.6967 14 44.7999C14 61.1884 25.375 72.3103 39.7247 79.6094C45.1212 82.3544 47.5901 87.4701 48.3938 93.1825C48.5256 94.1198 49.3081 94.8499 50.2546 94.8499H50.5454C51.4919 94.8499 52.2744 94.1198 52.4062 93.1825C53.2099 87.4701 55.6788 82.3544 61.0753 79.6094C74.8562 72.5996 86.8 61.1884 86.8 44.7999C86.8 24.6967 70.5032 8.3999 50.4 8.3999Z" fill="#E84E5D"/>
<path d="M50.4 8.3999C30.2968 8.3999 14 24.6967 14 44.7999C14 61.1884 25.375 72.3103 39.7247 79.6094C45.1212 82.3544 47.5901 87.4701 48.3938 93.1825C48.5256 94.1198 49.3081 94.8499 50.2546 94.8499H50.5454C51.4919 94.8499 52.2744 94.1198 52.4062 93.1825C53.2099 87.4701 55.6788 82.3544 61.0753 79.6094C74.8562 72.5996 86.8 61.1884 86.8 44.7999C86.8 24.6967 70.5032 8.3999 50.4 8.3999Z" fill="url(#paint0_radial_38_1816)"/>
<path d="M33.9733 63.4601C33.9733 63.8725 34.3075 64.2068 34.7199 64.2068H45.9169V55.2468H54.8769V64.2068H66.0739C66.4863 64.2068 66.8206 63.8725 66.8206 63.4601V46.2895H33.9733V63.4601ZM69.6042 42.0457L66.8209 39.6V28.3734C66.8209 26.7239 65.4837 25.3867 63.8342 25.3867C62.1847 25.3867 60.8476 26.7239 60.8476 28.3734V34.3467L50.9399 25.6555C50.6577 25.356 50.1863 25.3413 49.8859 25.6227L49.8531 25.6555L31.1891 41.9717C30.9071 42.2726 30.9225 42.7451 31.2235 43.0271C31.3593 43.1543 31.5377 43.2262 31.7237 43.2288L36.9599 43.3034H69.057C69.4694 43.3048 69.8048 42.9716 69.8062 42.5592C69.8068 42.3687 69.7346 42.1851 69.6042 42.046V42.0457Z" fill="white"/>
<defs>
<filter id="filter0_f_38_1816" x="23.4499" y="79.8" width="53.9" height="30.7999" filterUnits="userSpaceOnUse" color-interpolation-filters="sRGB">
<feFlood flood-opacity="0" result="BackgroundImageFix"/>
<feBlend mode="normal" in="SourceGraphic" in2="BackgroundImageFix" result="shape"/>
<feGaussianBlur stdDeviation="5.6" result="effect1_foregroundBlur_38_1816"/>
</filter>
<filter id="filter1_d_38_1816" x="0.000195503" y="9.77516e-05" width="100.8" height="114.45" filterUnits="userSpaceOnUse" color-interpolation-filters="sRGB">
<feFlood flood-opacity="0" result="BackgroundImageFix"/>
<feColorMatrix in="SourceAlpha" type="matrix" values="0 0 0 0 0 0 0 0 0 0 0 0 0 0 0 0 0 0 127 0" result="hardAlpha"/>
<feOffset dy="5.6"/>
<feGaussianBlur stdDeviation="5.6"/>
<feComposite in2="hardAlpha" operator="out"/>
<feColorMatrix type="matrix" values="0 0 0 0 0 0 0 0 0 0 0 0 0 0 0 0 0 0 0.12 0"/>
<feBlend mode="normal" in2="BackgroundImageFix" result="effect1_dropShadow_38_1816"/>
<feBlend mode="normal" in="SourceGraphic" in2="effect1_dropShadow_38_1816" result="shape"/>
</filter>
<radialGradient id="paint0_radial_38_1816" cx="0" cy="0" r="1" gradientUnits="userSpaceOnUse" gradientTransform="translate(50.4 25.9499) rotate(90) scale(68.9 58.021)">
<stop stop-color="#131A26" stop-opacity="0"/>
<stop offset="0.61718" stop-color="#131926" stop-opacity="0"/>
<stop offset="1" stop-color="#131A26" stop-opacity="0.15"/>
</radialGradient>
</defs>
</svg>
